<svg width="42" height="42" viewBox="0 0 42 42" fill="none" xmlns="http://www.w3.org/2000/svg">
<path fill-rule="evenodd" clip-rule="evenodd" d="M23.8841 31.4229C24.1815 31.7202 24.6637 31.7202 24.9611 31.4229L39.8013 16.5826C40.9729 15.4111 40.9729 13.5116 39.8013 12.34L29.5055 2.04418C28.3339 0.872607 26.4344 0.872608 25.2628 2.04418L10.4226 16.8844C10.1252 17.1818 10.1252 17.6639 10.4226 17.9613L23.8841 31.4229Z" fill="#E0B99A"/>
<path d="M10.4226 17.9613L23.8841 31.4229M10.4226 17.9613V17.9613C10.1252 17.6639 10.1252 17.1818 10.4226 16.8844V16.8844M10.4226 17.9613L2.58239 25.8015M10.4226 17.9613C10.1252 17.6639 10.1252 17.1818 10.4226 16.8844M23.8841 31.4229V31.4229C24.1815 31.7202 24.6637 31.7202 24.9611 31.4229V31.4229M23.8841 31.4229C24.1815 31.7202 24.6637 31.7202 24.9611 31.4229M23.8841 31.4229L16.0439 39.2631M11.8013 39.2631L2.58239 30.0442M11.8013 39.2631C12.9729 40.4347 14.8724 40.4347 16.0439 39.2631M11.8013 39.2631V39.2631C12.9729 40.4347 14.8724 40.4347 16.0439 39.2631V39.2631M2.58239 30.0442C1.41082 28.8726 1.41082 26.9731 2.58239 25.8015M2.58239 30.0442V30.0442C1.41082 28.8726 1.41082 26.9731 2.58239 25.8015V25.8015M10.4226 16.8844L25.2628 2.04418M25.2628 2.04418C26.4344 0.872608 28.3339 0.872607 29.5055 2.04418M25.2628 2.04418V2.04418C26.4344 0.87261 28.3339 0.872607 29.5055 2.04418V2.04418M29.5055 2.04418L39.8013 12.34M39.8013 12.34C40.9729 13.5116 40.9729 15.4111 39.8013 16.5826M39.8013 12.34V12.34C40.9729 13.5116 40.9729 15.4111 39.8013 16.5826V16.5826M39.8013 16.5826L24.9611 31.4229" stroke="#FBF9F3" stroke-width="2"/>
</svg>
