<svg width="52" height="38" viewBox="0 0 52 38" fill="none" xmlns="http://www.w3.org/2000/svg">
<path d="M35.7388 19.1756C38.8548 15.9315 21.4236 -0.811024 18.3077 2.43307L18.0845 2.75497C17.8645 3.21165 17.8974 3.8304 18.1318 4.56184C20.7557 1.82994 36.2429 16.7053 33.6189 19.4372C34.3592 19.6419 34.9787 19.6498 35.4262 19.4116L35.7388 19.1756Z" fill="#C68964"/>
<path d="M5.19171 21.3484C2.07575 24.5925 14.2513 36.287 17.3672 33.0429L35.4262 19.4116C34.9787 19.6498 34.3592 19.6419 33.6189 19.4372C28.9799 18.1546 19.6003 9.14552 18.1318 4.56184C17.8974 3.8304 17.8645 3.21165 18.0845 2.75497L5.19171 21.3484Z" fill="#C68964"/>
<path d="M18.1318 4.56184C19.6003 9.14552 28.9799 18.1546 33.6189 19.4372C36.2429 16.7053 20.7557 1.82994 18.1318 4.56184Z" fill="#E0B99A"/>
<path d="M17.6556 4.71438C18.0493 5.94325 18.9529 7.42052 20.1222 8.94391C21.2985 10.4767 22.7712 12.0912 24.34 13.598C25.9088 15.1048 27.5814 16.5113 29.1603 17.625C30.7295 18.7319 32.242 19.5753 33.4857 19.9191C33.5963 19.9497 33.7068 19.9769 33.8166 20.0001L17.066 32.6438L17.0342 32.6678L17.0066 32.6966C16.7384 32.9758 16.3576 33.1181 15.8341 33.105C15.3006 33.0917 14.6501 32.9152 13.9177 32.5847C12.4554 31.9248 10.7853 30.7055 9.28886 29.2681C7.79242 27.8308 6.50676 26.2112 5.7885 24.7766C5.42878 24.0582 5.22622 23.4153 5.19139 22.8827C5.15721 22.3602 5.28412 21.974 5.55232 21.6947L5.5799 21.666L5.6026 21.6333L17.5614 4.38689C17.589 4.49575 17.6206 4.60504 17.6556 4.71438ZM35.4015 18.8037L35.1603 18.9858C34.9746 19.0745 34.7127 19.1137 34.3626 19.0765C34.4618 18.6676 34.4154 18.2127 34.2975 17.7723C34.1003 17.036 33.6685 16.1907 33.0948 15.3045C31.9427 13.525 30.1419 11.4651 28.1897 9.58999C26.2375 7.7149 24.1067 5.99852 22.2822 4.9191C21.3737 4.38155 20.5116 3.98411 19.768 3.8168C19.3232 3.71672 18.8668 3.68865 18.4622 3.80424C18.4109 3.45591 18.4395 3.19258 18.5206 3.00349L18.6928 2.7551C18.9122 2.54806 19.3046 2.44308 19.9811 2.5783C20.673 2.7166 21.543 3.08719 22.5347 3.65769C24.5112 4.79466 26.8522 6.65564 29.0139 8.73187C31.1755 10.8081 33.1292 13.0723 34.3449 15.0013C34.9549 15.9693 35.3602 16.8237 35.5263 17.5094C35.6887 18.1799 35.5996 18.5762 35.4015 18.8037ZM18.736 4.76717C18.9127 4.71446 19.1715 4.70759 19.5485 4.79241C20.1438 4.92637 20.9017 5.26421 21.773 5.77975C23.5084 6.80648 25.5774 8.46745 27.497 10.3112C29.4166 12.1549 31.1595 14.1553 32.2553 15.848C32.8055 16.6978 33.1736 17.4415 33.3315 18.0309C33.4314 18.4042 33.435 18.663 33.3894 18.8417C32.3699 18.4877 31.109 17.7758 29.7367 16.8078C28.2062 15.7283 26.5723 14.3556 25.0328 12.8768C23.4932 11.3981 22.0557 9.82077 20.9154 8.33506C19.8929 7.00282 19.1309 5.77167 18.736 4.76717Z" stroke="#FBF9F3"/>
<path d="M39.2255 14.8348C39.2255 14.8348 42.8734 13.559 44.3044 13.9966C45.6659 14.4131 46.2932 15.5324 45.823 16.8764C45.4354 17.9844 43.9492 18.2007 42.8695 17.7401C42.043 17.3875 40.1027 14.6045 39.2255 14.8348Z" fill="#E0B99A" stroke="#FBF9F3"/>
<path d="M37.7205 11.6453C37.7205 11.6453 39.5132 6.5839 41.2326 5.41494C42.8685 4.30269 44.6268 4.59739 45.6732 6.27617C46.536 7.66026 45.477 9.45829 44.0384 10.2269C42.9372 10.8152 38.2344 10.4948 37.7205 11.6453Z" fill="#E0B99A" stroke="#FBF9F3"/>
<path d="M38.8694 16.6029C38.8694 16.6029 40.4732 18.5887 40.5305 19.5499C40.5851 20.4644 40.0449 21.0659 39.1194 21.039C38.3563 21.0168 37.8878 20.1489 37.924 19.3983C37.9517 18.8238 39.2085 17.0953 38.8694 16.6029Z" fill="#E0B99A" stroke="#FBF9F3"/>
</svg>
