<svg width="51" height="52" viewBox="0 0 51 52" fill="none" xmlns="http://www.w3.org/2000/svg">
<path d="M4.71686 46.8063L9.31592 45.2733L6.24988 42.2072L4.71686 46.8063Z" fill="#E0B99A"/>
<path d="M46.2263 14.7308L36.7923 5.29687L9.43384 32.6554L18.8678 42.0893L46.2263 14.7308Z" fill="#E0B99A"/>
<path d="M46.2263 14.7308L36.7923 5.29687M46.2263 14.7308L49.9999 10.9572L40.5659 1.52328L36.7923 5.29687M46.2263 14.7308L18.8678 42.0893M36.7923 5.29687L9.43384 32.6554M18.8678 42.0893L9.43384 32.6554M18.8678 42.0893L9.31592 45.2733M9.43384 32.6554C8.16484 36.4624 7.2799 39.1172 6.24988 42.2072M4.71686 46.8063L9.31592 45.2733M4.71686 46.8063C5.28995 45.087 5.78471 43.6027 6.24988 42.2072M4.71686 46.8063L6.24988 42.2072M9.31592 45.2733L6.24988 42.2072" stroke="#FBF9F3"/>
</svg>
